<svg width="261" height="261" viewBox="0 0 261 261" fill="none" xmlns="http://www.w3.org/2000/svg">
<circle cx="130.5" cy="130.5" r="126.5" stroke="#CED3DC" stroke-width="8"/>
<path d="M131.436 209.707L116.333 124.615C116.067 123.115 114.863 121.958 113.353 121.75C110.996 121.427 109.007 123.493 109.419 125.837L124.401 210.951C124.814 213.298 127.367 214.59 129.504 213.533C130.926 212.829 131.713 211.27 131.436 209.707Z" fill="#CED3DC"/>
<path d="M121.597 157.685C149.781 129.862 191.645 85.6296 181.516 68.435C171.388 51.2403 130.835 58.6404 93.3506 80.7204C55.8663 102.8 62.2758 115.409 62.2758 115.409C62.2758 115.409 63.1111 118.5 65.6111 117.5C69.802 115.824 57.612 108.884 95.0963 86.8042C132.581 64.7242 163.088 57.9563 175.735 70.6618C181.516 88.3084 148.697 122.997 120.513 150.819L121.597 157.685Z" fill="#CED3DC"/>
<path d="M88.7155 205.38C93.7743 215.498 110.931 211.688 123.403 201.406L123.404 195.263C111.48 202.128 101.51 210.121 95.2195 202.49C88.9289 194.859 106.956 170.495 119.429 160.214L115.454 155.516C102.981 165.798 83.6567 195.263 88.7155 205.38Z" fill="#CED3DC"/>
<path d="M176.038 162.151L126.59 193.309C125.732 193.85 125.211 194.794 125.211 195.809C125.211 198.109 127.723 199.527 129.692 198.338L179.728 168.134C181.934 166.802 182.005 163.629 179.862 162.2C178.708 161.431 177.21 161.412 176.038 162.151Z" fill="#CED3DC"/>
<path d="M135.436 209.707L120.333 124.615C120.067 123.115 118.863 121.958 117.353 121.75C114.996 121.427 113.007 123.493 113.419 125.837L128.401 210.951C128.814 213.298 131.367 214.59 133.504 213.533C134.926 212.829 135.713 211.27 135.436 209.707Z" fill="#A5A6B8"/>
<path d="M125.597 157.685C153.781 129.862 195.645 85.6296 185.516 68.435C175.388 51.2403 134.835 58.6404 97.3506 80.7204C59.8663 102.8 66.2758 115.409 66.2758 115.409C66.2758 115.409 67.1111 118.5 69.6111 117.5C73.802 115.824 61.612 108.884 99.0963 86.8042C136.581 64.7242 167.088 57.9563 179.735 70.6618C185.516 88.3084 152.697 122.997 124.513 150.819L125.597 157.685Z" fill="#A5A6B8"/>
<path d="M92.7155 205.38C97.7743 215.498 114.931 211.688 127.403 201.406L127.404 195.263C115.48 202.128 105.51 210.121 99.2195 202.49C92.9289 194.859 110.956 170.495 123.429 160.214L119.454 155.516C106.981 165.798 87.6567 195.263 92.7155 205.38Z" fill="#A5A6B8"/>
<path d="M180.038 162.151L130.59 193.309C129.732 193.85 129.211 194.794 129.211 195.809C129.211 198.109 131.723 199.527 133.692 198.338L183.728 168.134C185.934 166.802 186.005 163.629 183.862 162.2C182.708 161.431 181.21 161.412 180.038 162.151Z" fill="#A5A6B8"/>
</svg>
